<svg width="14" height="21" viewBox="0 0 14 21" fill="none" xmlns="http://www.w3.org/2000/svg">
<path d="M12.7679 1.02211C12.9494 1.18787 13.0935 1.38475 13.1918 1.60149C13.29 1.81824 13.3406 2.05059 13.3406 2.28524C13.3406 2.51989 13.29 2.75224 13.1918 2.96898C13.0935 3.18572 12.9494 3.38261 12.7679 3.54836L5.16957 10.5L12.7679 17.4517C13.1341 17.7867 13.3398 18.2411 13.3398 18.7148C13.3398 19.1886 13.1341 19.6429 12.7679 19.9779C12.4017 20.313 11.9051 20.5011 11.3873 20.5011C10.8694 20.5011 10.3728 20.313 10.0067 19.9779L1.0179 11.7542C0.836359 11.5884 0.692328 11.3916 0.594056 11.1748C0.495784 10.9581 0.445202 10.7257 0.445202 10.4911C0.445202 10.2564 0.495784 10.0241 0.594056 9.80733C0.692328 9.59058 0.836359 9.3937 1.0179 9.22795L10.0067 1.0042C10.7508 0.323362 12.0042 0.323363 12.7679 1.02211Z" fill="#5856CE"/>
</svg>
